<?xml version="1.0" encoding="utf-8"?>
<!-- Generator: Adobe Illustrator 22.0.1, SVG Export Plug-In . SVG Version: 6.00 Build 0)  -->
<svg version="1.1" id="Capa_1" xmlns="http://www.w3.org/2000/svg" xmlns:xlink="http://www.w3.org/1999/xlink" x="0px" y="0px"
	 viewBox="0 0 30 30" style="enable-background:new 0 0 30 30;" xml:space="preserve">
<style type="text/css">
	.st0{fill:#00FF00;}
</style>
<path class="st0" d="M29.1,6.5l-4.2-4.2c-0.5-0.5-1.2-0.5-1.7,0L9.4,16.1c-0.2,0.2-0.4,0.2-0.7,0.2c-0.3,0-0.5-0.1-0.7-0.2l-1.3-1.3
	c-0.5-0.5-1.2-0.5-1.7,0l-4.2,4.2c-0.5,0.5-0.5,1.2,0,1.7l7.1,7.1c0.5,0.5,1.2,0.5,1.7,0l4.2-4.2c0.1-0.1,0.2-0.2,0.2-0.3L29.1,8.2
	C29.6,7.7,29.6,6.9,29.1,6.5z"/>
</svg>
