<?xml version="1.0" encoding="utf-8"?>
<!-- Generator: Adobe Illustrator 16.0.0, SVG Export Plug-In . SVG Version: 6.00 Build 0)  -->
<!DOCTYPE svg PUBLIC "-//W3C//DTD SVG 1.1//EN" "http://www.w3.org/Graphics/SVG/1.1/DTD/svg11.dtd">
<svg version="1.1" id="Layer_1" xmlns="http://www.w3.org/2000/svg" xmlns:xlink="http://www.w3.org/1999/xlink" x="0px" y="0px"
	 width="25px" height="70px" viewBox="0 0 25 70" enable-background="new 0 0 25 70" xml:space="preserve">
<path fill="#FF0000" d="M14.405,70L25,59.399v-2.121L12.284,70H14.405z M24.41,70L25,69.409v-2.121L22.289,70H24.41z M22.238,0
	L0,22.238v2.121L24.359,0H22.238z M19.407,70L25,64.404v-2.122L17.287,70H19.407z M12.233,0L0,12.233v2.121L14.354,0H12.233z
	 M17.236,0L0,17.235v2.121L19.357,0H17.236z M9.402,70L25,54.395v-2.121L7.281,70H9.402z M2.229,0L0,2.229V4.35L4.35,0H2.229z
	 M7.23,0L0,7.231v2.121L9.352,0H7.23z M0,49.378l25-25.005v-2.121L0,47.257V49.378z M0,39.369l25-25.002v-2.121L0,37.248V39.369z
	 M0,34.364l25-25V7.243l-25,25V34.364z M0,44.374L25,19.37v-2.121L0,42.253V44.374z M0,27.241v2.121L25,4.361V2.24L0,27.241z
	 M0,69.397l25-25.012v-2.122L0,67.275V69.397z M0,64.393l25-25.011v-2.121L0,62.271V64.393z M0,54.383l25-25.007v-2.121L0,52.262
	V54.383z M4.399,70L25,49.39v-2.121L2.279,70H4.399z M0,59.388L25,34.38v-2.121L0,57.267V59.388z"/>
</svg>
