<?xml version="1.0" standalone="no"?>
<!DOCTYPE svg PUBLIC "-//W3C//DTD SVG 20010904//EN"
 "http://www.w3.org/TR/2001/REC-SVG-20010904/DTD/svg10.dtd">
<svg version="1.0" xmlns="http://www.w3.org/2000/svg"
 width="992.000000pt" height="1280.000000pt" viewBox="0 0 992.000000 1280.000000"
 preserveAspectRatio="xMidYMid meet">
<g transform="translate(0.000000,1280.000000) scale(0.100000,-0.100000)"
fill="#000000" stroke="none">
<path d="M4625 12789 c-55 -4 -194 -12 -310 -18 -343 -17 -525 -47 -800 -132
-646 -201 -1202 -619 -1579 -1187 -328 -492 -463 -934 -516 -1687 -5 -77 -10
-452 -10 -834 0 -638 7 -879 29 -1028 l8 -53 -31 -4 c-17 -3 -53 -8 -81 -11
-172 -21 -306 -61 -461 -135 -471 -227 -737 -704 -828 -1487 -41 -348 -41
-361 -41 -2423 0 -2184 -3 -2082 60 -2335 160 -648 615 -1063 1395 -1275 592
-160 1304 -199 2660 -145 534 21 1013 19 1598 -7 651 -28 1484 -31 1791 -5
986 83 1579 295 1972 703 228 238 354 508 416 890 17 102 18 249 18 2184 0
2148 0 2176 -41 2510 -85 698 -339 1151 -770 1372 -150 77 -315 125 -546 159
l-87 13 -4 1026 c-4 1075 -5 1093 -52 1375 -94 555 -311 1058 -635 1465 -100
125 -302 330 -420 424 -192 153 -500 335 -685 405 -300 114 -535 173 -815 205
-163 19 -776 47 -985 44 -82 -1 -195 -5 -250 -9z m1522 -155 c-3 -3 -12 -4
-19 -1 -8 3 -5 6 6 6 11 1 17 -2 13 -5z m58 -14 c13 -5 14 -9 5 -9 -8 0 -24 4
-35 9 -13 5 -14 9 -5 9 8 0 24 -4 35 -9z m141 -44 c691 -235 1226 -623 1586
-1151 68 -100 165 -264 141 -240 -5 6 -36 55 -67 109 -101 170 -227 329 -405
506 -342 342 -706 565 -1231 756 -162 59 -178 72 -24 20z m-786 -1346 c318
-57 521 -154 709 -342 256 -256 404 -639 463 -1198 10 -93 13 -335 13 -947 0
-452 -3 -824 -6 -828 -4 -3 -157 -13 -340 -21 -905 -39 -1129 -44 -2171 -44
l-1046 0 -1 306 c0 168 -3 310 -7 315 -10 17 -5 734 6 911 30 472 90 779 205
1054 81 194 172 330 312 465 174 169 373 268 648 324 143 29 234 33 665 30
387 -2 436 -4 550 -25z"/>
</g>
</svg>
