<svg width="24" height="28" viewBox="0 0 24 28" fill="none" xmlns="http://www.w3.org/2000/svg">
<g id="file">
<path id="Vector" d="M5.4375 1.8125H14.8125C16.0111 1.81266 17.1607 2.28802 18.0094 3.13437L20.9906 6.11563C21.837 6.96431 22.3123 8.11392 22.3125 9.3125V22.4375C22.3125 23.4321 21.9174 24.3859 21.2141 25.0891C20.5109 25.7924 19.5571 26.1875 18.5625 26.1875H5.4375C4.44294 26.1875 3.48911 25.7924 2.78585 25.0891C2.08259 24.3859 1.6875 23.4321 1.6875 22.4375V5.5625C1.6875 4.56794 2.08259 3.61411 2.78585 2.91085C3.48911 2.20759 4.44294 1.8125 5.4375 1.8125V1.8125Z" stroke="#03C1EA" stroke-width="2" stroke-linecap="round" stroke-linejoin="round"/>
<path id="Vector_2" d="M14.8125 7.4375V1.8125C16.0111 1.81266 17.1607 2.28802 18.0094 3.13437L20.9906 6.11563C21.837 6.96431 22.3123 8.11392 22.3125 9.3125H16.6875C16.1902 9.3125 15.7133 9.11496 15.3617 8.76332C15.01 8.41169 14.8125 7.93478 14.8125 7.4375Z" stroke="#03C1EA" stroke-width="2" stroke-linecap="round" stroke-linejoin="round"/>
</g>
</svg>
