<?xml version="1.0" encoding="utf-8"?>
<!-- Generator: Adobe Illustrator 22.0.1, SVG Export Plug-In . SVG Version: 6.00 Build 0)  -->
<svg version="1.1" id="Capa_1" xmlns="http://www.w3.org/2000/svg" xmlns:xlink="http://www.w3.org/1999/xlink" x="0px" y="0px"
	 viewBox="0 0 30 30" style="enable-background:new 0 0 30 30;" xml:space="preserve">
<style type="text/css">
	.st0{fill:#FF0049;}
</style>
<path class="st0" d="M21.5,15.7c-0.2-0.2-0.2-0.4-0.2-0.7c0-0.3,0.1-0.5,0.2-0.7v0l7.6-7.6c0.5-0.5,0.5-1.2,0-1.7l-4.2-4.2
	c-0.5-0.5-1.2-0.5-1.7,0l-7.6,7.6c-0.2,0.1-0.4,0.2-0.6,0.2c-0.3,0-0.5-0.1-0.7-0.2h0L6.7,0.9C6.2,0.4,5.5,0.4,5,0.9L0.8,5
	c-0.5,0.5-0.5,1.2,0,1.7l7.6,7.6c0.1,0.2,0.2,0.4,0.2,0.6c0,0.3-0.1,0.5-0.2,0.7l-7.6,7.6c-0.5,0.5-0.5,1.2,0,1.7L5,29.1
	c0.5,0.5,1.2,0.5,1.7,0l7.6-7.6c0.2-0.1,0.4-0.2,0.7-0.2c0.2,0,0.5,0.1,0.6,0.2l7.6,7.6c0.5,0.5,1.2,0.5,1.7,0l4.2-4.2
	c0.5-0.5,0.5-1.2,0-1.7L21.5,15.7z"/>
</svg>
