<?xml version="1.0" encoding="UTF-8"?>
<svg id="Layer_1" data-name="Layer 1" xmlns="http://www.w3.org/2000/svg" xmlns:xlink="http://www.w3.org/1999/xlink" viewBox="0 0 114.54 114.54">
  <defs>
    <style>
      .cls-1 {
        fill: url(#linear-gradient);
      }

      .cls-2 {
        fill: #ff4c88;
      }

      .cls-3 {
        fill: url(#linear-gradient-8);
      }

      .cls-4 {
        fill: url(#linear-gradient-9);
      }

      .cls-5 {
        fill: url(#linear-gradient-3);
      }

      .cls-6 {
        fill: url(#linear-gradient-4);
      }

      .cls-7 {
        fill: url(#linear-gradient-2);
      }

      .cls-8 {
        fill: url(#linear-gradient-6);
      }

      .cls-9 {
        fill: url(#linear-gradient-7);
      }

      .cls-10 {
        fill: url(#linear-gradient-5);
      }

      .cls-11 {
        fill: url(#linear-gradient-40);
      }

      .cls-12 {
        fill: url(#linear-gradient-14);
      }

      .cls-13 {
        fill: url(#linear-gradient-18);
      }

      .cls-14 {
        fill: url(#linear-gradient-22);
      }

      .cls-15 {
        fill: url(#linear-gradient-20);
      }

      .cls-16 {
        fill: url(#linear-gradient-21);
      }

      .cls-17 {
        fill: url(#linear-gradient-23);
      }

      .cls-18 {
        fill: url(#linear-gradient-15);
      }

      .cls-19 {
        fill: url(#linear-gradient-19);
      }

      .cls-20 {
        fill: url(#linear-gradient-16);
      }

      .cls-21 {
        fill: url(#linear-gradient-17);
      }

      .cls-22 {
        fill: url(#linear-gradient-13);
      }

      .cls-23 {
        fill: url(#linear-gradient-12);
      }

      .cls-24 {
        fill: url(#linear-gradient-10);
      }

      .cls-25 {
        fill: url(#linear-gradient-11);
      }

      .cls-26 {
        fill: url(#linear-gradient-27);
      }

      .cls-27 {
        fill: url(#linear-gradient-24);
      }

      .cls-28 {
        fill: url(#linear-gradient-26);
      }

      .cls-29 {
        fill: url(#linear-gradient-38);
      }

      .cls-30 {
        fill: url(#linear-gradient-35);
      }

      .cls-31 {
        fill: url(#linear-gradient-37);
      }

      .cls-32 {
        fill: url(#linear-gradient-34);
      }

      .cls-33 {
        fill: url(#linear-gradient-39);
      }

      .cls-34 {
        fill: url(#linear-gradient-36);
      }

      .cls-35 {
        fill: url(#linear-gradient-25);
      }

      .cls-36 {
        fill: url(#linear-gradient-28);
      }

      .cls-37 {
        fill: url(#linear-gradient-29);
      }

      .cls-38 {
        fill: url(#linear-gradient-33);
      }

      .cls-39 {
        fill: url(#linear-gradient-30);
      }

      .cls-40 {
        fill: url(#linear-gradient-32);
      }

      .cls-41 {
        fill: url(#linear-gradient-31);
      }
    </style>
    <linearGradient id="linear-gradient" x1=".41" y1="57.47" x2="114.54" y2="57.47" gradientUnits="userSpaceOnUse">
      <stop offset="0" stop-color="#fff"/>
      <stop offset="1" stop-color="#bdbdbd"/>
    </linearGradient>
    <linearGradient id="linear-gradient-2" x1=".37" y1="57.44" x2="114.51" y2="57.44" xlink:href="#linear-gradient"/>
    <linearGradient id="linear-gradient-3" x1=".34" y1="57.41" x2="114.48" y2="57.41" xlink:href="#linear-gradient"/>
    <linearGradient id="linear-gradient-4" x1=".31" y1="57.38" x2="114.45" y2="57.38" xlink:href="#linear-gradient"/>
    <linearGradient id="linear-gradient-5" x1=".28" y1="57.35" x2="114.42" y2="57.35" xlink:href="#linear-gradient"/>
    <linearGradient id="linear-gradient-6" x1=".25" y1="57.32" x2="114.38" y2="57.32" xlink:href="#linear-gradient"/>
    <linearGradient id="linear-gradient-7" x1=".22" y1="57.29" x2="114.35" y2="57.29" xlink:href="#linear-gradient"/>
    <linearGradient id="linear-gradient-8" x1=".19" y1="57.25" x2="114.32" y2="57.25" xlink:href="#linear-gradient"/>
    <linearGradient id="linear-gradient-9" x1=".16" y1="57.22" x2="114.29" y2="57.22" xlink:href="#linear-gradient"/>
    <linearGradient id="linear-gradient-10" x1=".12" y1="57.19" x2="114.26" y2="57.19" xlink:href="#linear-gradient"/>
    <linearGradient id="linear-gradient-11" x1=".09" y1="57.16" x2="114.23" y2="57.16" xlink:href="#linear-gradient"/>
    <linearGradient id="linear-gradient-12" x1=".06" y1="57.13" x2="114.2" y2="57.13" xlink:href="#linear-gradient"/>
    <linearGradient id="linear-gradient-13" x1=".03" y1="57.1" x2="114.17" y2="57.1" xlink:href="#linear-gradient"/>
    <linearGradient id="linear-gradient-14" x1="0" y1="57.07" x2="114.14" y2="57.07" xlink:href="#linear-gradient"/>
    <linearGradient id="linear-gradient-15" x1=".56" y1="56.99" x2="113.56" y2="56.99" gradientTransform="translate(42.79 -21.88) rotate(34.78)" xlink:href="#linear-gradient"/>
    <linearGradient id="linear-gradient-16" x1="1.13" y1="56.91" x2="112.96" y2="56.91" gradientTransform="translate(43.46 -21.59) rotate(35.26)" xlink:href="#linear-gradient"/>
    <linearGradient id="linear-gradient-17" x1="1.71" y1="56.82" x2="112.34" y2="56.82" gradientTransform="translate(5.85 -3.7) rotate(4.98) scale(.99)" xlink:href="#linear-gradient"/>
    <linearGradient id="linear-gradient-18" x1="2.3" y1="56.74" x2="111.71" y2="56.74" gradientTransform="translate(7.79 -4.94) rotate(6.66) scale(.98)" xlink:href="#linear-gradient"/>
    <linearGradient id="linear-gradient-19" x1="2.89" y1="56.66" x2="111.06" y2="56.66" gradientTransform="translate(9.74 -6.17) rotate(8.35) scale(.98)" xlink:href="#linear-gradient"/>
    <linearGradient id="linear-gradient-20" x1="3.48" y1="56.59" x2="110.4" y2="56.59" gradientTransform="translate(11.69 -7.41) rotate(10.04) scale(.98)" xlink:href="#linear-gradient"/>
    <linearGradient id="linear-gradient-21" x1="4.07" y1="56.51" x2="109.74" y2="56.51" gradientTransform="translate(13.64 -8.64) rotate(11.74) scale(.98)" xlink:href="#linear-gradient"/>
    <linearGradient id="linear-gradient-22" x1="4.65" y1="56.44" x2="109.07" y2="56.44" gradientTransform="translate(15.59 -9.87) rotate(13.43) scale(.98)" xlink:href="#linear-gradient"/>
    <linearGradient id="linear-gradient-23" x1="5.22" y1="56.37" x2="108.41" y2="56.37" gradientTransform="translate(17.54 -11.11) rotate(15.12) scale(.98)" xlink:href="#linear-gradient"/>
    <linearGradient id="linear-gradient-24" x1="5.79" y1="56.3" x2="107.74" y2="56.3" gradientTransform="translate(19.49 -12.34) rotate(16.8) scale(.99)" xlink:href="#linear-gradient"/>
    <linearGradient id="linear-gradient-25" x1="6.33" y1="56.24" x2="107.09" y2="56.24" gradientTransform="translate(21.44 -13.58) rotate(18.47)" xlink:href="#linear-gradient"/>
    <linearGradient id="linear-gradient-26" x1="6.87" y1="56.18" x2="106.45" y2="56.18" gradientTransform="translate(23.38 -14.81) rotate(20.13)" xlink:href="#linear-gradient"/>
    <linearGradient id="linear-gradient-27" x1="7.38" y1="56.12" x2="105.82" y2="56.12" gradientTransform="translate(25.33 -16.04) rotate(21.78)" xlink:href="#linear-gradient"/>
    <linearGradient id="linear-gradient-28" x1="-.11" y1="55.88" x2="114.68" y2="55.88" gradientTransform="translate(28.53 -4.46) rotate(20.83) scale(.85)" xlink:href="#linear-gradient"/>
    <linearGradient id="linear-gradient-29" x1="-10.84" y1="55.58" x2="127.42" y2="55.58" gradientTransform="translate(31.73 7.12) rotate(19.47) scale(.7)" xlink:href="#linear-gradient"/>
    <linearGradient id="linear-gradient-30" x1="-27.47" y1="55.2" x2="147.24" y2="55.2" gradientTransform="translate(34.93 18.7) rotate(17.35) scale(.54)" xlink:href="#linear-gradient"/>
    <linearGradient id="linear-gradient-31" x1="-56.53" y1="54.82" x2="182.03" y2="54.82" gradientTransform="translate(38.13 30.28) rotate(13.6) scale(.39)" xlink:href="#linear-gradient"/>
    <linearGradient id="linear-gradient-32" x1="-118.64" y1="55.33" x2="256.81" y2="55.33" gradientTransform="translate(41.33 41.86) rotate(5.34) scale(.25)" xlink:href="#linear-gradient"/>
    <linearGradient id="linear-gradient-33" x1="-299.88" y1="69.13" x2="469.66" y2="69.13" gradientTransform="translate(44.53 53.44) rotate(-23.01) scale(.12)" xlink:href="#linear-gradient"/>
    <linearGradient id="linear-gradient-34" x1="-332.88" y1="91.27" x2="427.71" y2="91.27" gradientTransform="translate(47.73 65.02) rotate(-102.96) scale(.12)" xlink:href="#linear-gradient"/>
    <linearGradient id="linear-gradient-35" x1="-138.35" y1="70.77" x2="224.25" y2="70.77" gradientTransform="translate(50.93 76.6) rotate(-131.3) scale(.25)" xlink:href="#linear-gradient"/>
    <linearGradient id="linear-gradient-36" x1="-67" y1="64.98" x2="158.13" y2="64.98" gradientTransform="translate(54.13 88.18) rotate(-139.56) scale(.39)" xlink:href="#linear-gradient"/>
    <linearGradient id="linear-gradient-37" x1="-33.28" y1="62.65" x2="127.84" y2="62.65" gradientTransform="translate(57.33 99.76) rotate(-143.31) scale(.54)" xlink:href="#linear-gradient"/>
    <linearGradient id="linear-gradient-38" x1="-13.92" y1="61.44" x2="110.68" y2="61.44" gradientTransform="translate(60.53 111.34) rotate(-145.43) scale(.7)" xlink:href="#linear-gradient"/>
    <linearGradient id="linear-gradient-39" x1="-1.42" y1="60.7" x2="99.68" y2="60.7" gradientTransform="translate(63.73 122.92) rotate(-146.79) scale(.85)" xlink:href="#linear-gradient"/>
    <linearGradient id="linear-gradient-40" x1="7.29" y1="60.21" x2="92.05" y2="60.21" gradientTransform="translate(66.93 134.5) rotate(-147.74)" xlink:href="#linear-gradient"/>
  </defs>
  <g>
    <circle class="cls-1" cx="57.47" cy="57.47" r="57.07"/>
    <circle class="cls-7" cx="57.44" cy="57.44" r="57.07"/>
    <circle class="cls-5" cx="57.41" cy="57.41" r="57.07"/>
    <circle class="cls-6" cx="57.38" cy="57.38" r="57.07"/>
    <circle class="cls-10" cx="57.35" cy="57.35" r="57.07"/>
    <circle class="cls-8" cx="57.32" cy="57.32" r="57.07"/>
    <circle class="cls-9" cx="57.29" cy="57.29" r="57.07"/>
    <circle class="cls-3" cx="57.25" cy="57.25" r="57.07"/>
    <circle class="cls-4" cx="57.22" cy="57.22" r="57.07"/>
    <circle class="cls-24" cx="57.19" cy="57.19" r="57.07"/>
    <circle class="cls-25" cx="57.16" cy="57.16" r="57.07"/>
    <circle class="cls-23" cx="57.13" cy="57.13" r="57.07"/>
    <circle class="cls-22" cx="57.1" cy="57.1" r="57.07"/>
    <circle class="cls-12" cx="57.07" cy="57.07" r="57.07"/>
    <circle class="cls-18" cx="57.07" cy="57.07" r="56.21" transform="translate(-21.91 40.48) rotate(-33.14)"/>
    <circle class="cls-20" cx="57.07" cy="57.07" r="55.39" transform="translate(-21.56 38.85) rotate(-31.95)"/>
    <path class="cls-21" d="m111.51,61.28c-2.33,30.07-28.59,52.56-58.66,50.23C22.78,109.19.29,82.92,2.62,52.85,4.95,22.78,31.21.29,61.28,2.62c30.07,2.33,52.56,28.59,50.23,58.66Z"/>
    <path class="cls-13" d="m110.64,62.69c-3.1,29.59-29.6,51.06-59.19,47.95C21.86,107.54.39,81.04,3.5,51.45,6.6,21.86,33.1.39,62.69,3.5c29.59,3.1,51.06,29.6,47.95,59.19Z"/>
    <path class="cls-19" d="m109.77,64.09c-3.88,29.1-30.62,49.55-59.72,45.67C20.94,105.89.49,79.15,4.37,50.04,8.25,20.94,34.99.49,64.09,4.37c29.1,3.88,49.55,30.62,45.67,59.72Z"/>
    <path class="cls-15" d="m108.89,65.5c-4.66,28.62-31.63,48.05-60.25,43.39C20.02,104.24.59,77.26,5.24,48.64,9.9,20.02,36.88.59,65.5,5.24c28.62,4.66,48.05,31.63,43.39,60.25Z"/>
    <path class="cls-16" d="m108.02,66.9c-5.43,28.14-32.64,46.55-60.78,41.12C19.1,102.59.69,75.37,6.12,47.23,11.55,19.1,38.76.69,66.9,6.12c28.14,5.43,46.55,32.64,41.12,60.78Z"/>
    <path class="cls-14" d="m107.14,68.31c-6.21,27.66-33.66,45.04-61.31,38.84C18.17,100.94.79,73.49,6.99,45.83,13.2,18.17,40.65.79,68.31,6.99c27.66,6.21,45.04,33.66,38.84,61.31Z"/>
    <path class="cls-17" d="m106.27,69.71c-6.98,27.17-34.67,43.54-61.84,36.56C17.25,99.29.88,71.6,7.87,44.42,14.85,17.25,42.54.88,69.71,7.87c27.17,6.98,43.54,34.67,36.56,61.84Z"/>
    <path class="cls-27" d="m105.39,71.12c-7.76,26.69-35.68,42.04-62.37,34.28C16.33,97.64.98,69.71,8.74,43.02,16.5,16.33,44.43.98,71.12,8.74c26.69,7.76,42.04,35.69,34.28,62.38Z"/>
    <path class="cls-35" d="m104.52,72.52c-8.53,26.21-36.7,40.54-62.91,32C15.41,95.99,1.08,67.82,9.61,41.62,18.15,15.41,46.31,1.08,72.52,9.61c26.21,8.53,40.54,36.7,32,62.91Z"/>
    <path class="cls-28" d="m103.65,73.93c-9.31,25.73-37.71,39.03-63.44,29.72C14.49,94.34,1.18,65.94,10.49,40.21,19.8,14.49,48.2,1.18,73.93,10.49c25.73,9.31,39.03,37.71,29.72,63.44Z"/>
    <path class="cls-26" d="m102.77,75.33c-10.09,25.24-38.73,37.53-63.97,27.44C13.56,92.69,1.28,64.05,11.36,38.81,21.45,13.56,50.09,1.28,75.33,11.36c25.24,10.09,37.53,38.73,27.44,63.97Z"/>
    <path class="cls-36" d="m12.12,38.47C22.39,13.65,50.84,1.85,75.67,12.12c24.82,10.27,36.62,38.72,26.35,63.54-10.27,24.82-38.72,36.62-63.54,26.35C13.65,91.74,1.85,63.29,12.12,38.47Z"/>
    <path class="cls-37" d="m12.88,38.13C23.34,13.73,51.6,2.42,76,12.88c24.4,10.46,35.71,38.72,25.25,63.12-10.46,24.4-38.72,35.71-63.12,25.25C13.73,90.8,2.42,62.54,12.88,38.13Z"/>
    <path class="cls-39" d="m13.64,37.8C24.28,13.82,52.35,3,76.34,13.64c23.98,10.64,34.8,38.71,24.16,62.7-10.64,23.98-38.71,34.8-62.69,24.16C13.82,89.85,3,61.78,13.64,37.8Z"/>
    <path class="cls-41" d="m14.4,37.46C25.23,13.9,53.11,3.57,76.67,14.4c23.56,10.83,33.89,38.71,23.06,62.27-10.83,23.57-38.71,33.89-62.27,23.06C13.9,88.91,3.57,61.03,14.4,37.46Z"/>
    <path class="cls-40" d="m15.16,37.13C26.17,13.98,53.86,4.15,77.01,15.16c23.15,11.01,32.98,38.7,21.97,61.85-11.01,23.15-38.7,32.98-61.85,21.97C13.98,87.96,4.15,60.27,15.16,37.13Z"/>
    <path class="cls-38" d="m15.92,36.79C27.12,14.07,54.62,4.72,77.34,15.92c22.73,11.2,32.07,38.7,20.87,61.42-11.2,22.73-38.7,32.07-61.42,20.87C14.07,87.02,4.72,59.52,15.92,36.79Z"/>
    <path class="cls-32" d="m16.68,36.46C28.06,14.15,55.37,5.3,77.68,16.68c22.31,11.38,31.16,38.69,19.78,61-11.38,22.31-38.69,31.16-61,19.78-22.31-11.38-31.16-38.69-19.78-61Z"/>
    <path class="cls-30" d="m17.44,36.12C29,14.24,56.13,5.87,78.01,17.44c21.89,11.57,30.25,38.69,18.69,60.58-11.57,21.89-38.69,30.25-60.57,18.69-21.89-11.57-30.25-38.69-18.69-60.57Z"/>
    <path class="cls-34" d="m18.2,35.79C29.95,14.32,56.88,6.44,78.35,18.2c21.47,11.75,29.34,38.68,17.59,60.15-11.75,21.47-38.68,29.34-60.15,17.59-21.47-11.75-29.34-38.68-17.59-60.15Z"/>
    <path class="cls-31" d="m18.96,35.45C30.89,14.4,57.63,7.02,78.68,18.96c21.05,11.94,28.43,38.68,16.5,59.73-11.94,21.05-38.68,28.43-59.73,16.5-21.05-11.94-28.43-38.68-16.5-59.73Z"/>
    <path class="cls-29" d="m19.72,35.12c12.12-20.63,38.67-27.52,59.3-15.4,20.63,12.12,27.52,38.67,15.4,59.3-12.12,20.63-38.67,27.52-59.3,15.4-20.63-12.12-27.52-38.67-15.4-59.3Z"/>
    <path class="cls-33" d="m20.48,34.78c12.31-20.21,38.67-26.62,58.88-14.31,20.21,12.31,26.61,38.67,14.31,58.88-12.31,20.21-38.67,26.61-58.88,14.31-20.21-12.31-26.61-38.67-14.31-58.88Z"/>
    <path class="cls-11" d="m21.23,34.45c12.49-19.79,38.66-25.71,58.45-13.21,19.79,12.49,25.71,38.66,13.21,58.45-12.49,19.79-38.66,25.71-58.45,13.21-19.79-12.49-25.71-38.66-13.21-58.45Z"/>
  </g>
  <path id="playTriangle" fill="#ff4c88" d="m73.11,53.79l-21.63-12.49c-2.34-1.35-5.27.34-5.27,3.04v24.98c0,2.71,2.93,4.4,5.27,3.04l21.63-12.49c2.34-1.35,2.34-4.74,0-6.09Z"/>
</svg>