<svg width="82" height="82" viewBox="0 0 82 82" fill="none" xmlns="http://www.w3.org/2000/svg">
<g id="book-outline">
<path id="Vector" d="M40.9998 25.6128V71.7378M40.9998 25.6128C43.5623 15.4973 53.2406 10.3323 74.3123 10.2378C74.6492 10.2365 74.983 10.302 75.2945 10.4303C75.6059 10.5586 75.8889 10.7473 76.1271 10.9855C76.3653 11.2237 76.554 11.5067 76.6824 11.8182C76.8107 12.1297 76.8761 12.4634 76.8748 12.8003V58.9253C76.8748 59.6049 76.6049 60.2567 76.1243 60.7373C75.6437 61.2178 74.9919 61.4878 74.3123 61.4878C53.8123 61.4878 45.8926 65.6214 40.9998 71.7378C36.1359 65.6519 28.1873 61.4878 7.68732 61.4878C6.10498 61.4878 5.12482 60.1986 5.12482 58.6162V12.8003C5.12355 12.4634 5.18896 12.1297 5.31729 11.8182C5.44562 11.5067 5.63432 11.2237 5.87253 10.9855C6.11073 10.7473 6.39372 10.5586 6.70519 10.4303C7.01666 10.302 7.35045 10.2365 7.68732 10.2378C28.7591 10.3323 38.4373 15.4973 40.9998 25.6128Z" stroke="white" stroke-width="6" stroke-linecap="round" stroke-linejoin="round"/>
</g>
</svg>
