<svg width="26" height="24" viewBox="0 0 26 24" fill="none" xmlns="http://www.w3.org/2000/svg">
<g id="Book">
<path id="Vector" d="M13 2.34094V22.5887M13 2.34094L14.3202 1.84553C17.3243 0.718158 20.6757 0.718158 23.6798 1.84553C24.4772 2.14474 25 2.86923 25 3.67489V20.2957C25 21.402 23.809 22.1584 22.7142 21.7476C20.3299 20.8528 17.6701 20.8528 15.2858 21.7476L13.0165 22.5992C13.0086 22.6021 13 22.5967 13 22.5887M13 2.34094L11.6798 1.84553C8.67566 0.718158 5.32434 0.718158 2.32017 1.84553C1.52283 2.14474 1 2.86923 1 3.67489V9.03009M13 22.5887C13 22.5967 12.9914 22.6021 12.9835 22.5992L10.7142 21.7476C8.3299 20.8528 5.67011 20.8528 3.28582 21.7476C2.19097 22.1584 1 21.402 1 20.2957V13.7405" stroke="#704CEB" stroke-width="2" stroke-linecap="round"/>
</g>
</svg>
