<svg width="24" height="24" viewBox="0 0 24 24" fill="none" xmlns="http://www.w3.org/2000/svg">
<g id="checkmark-circle">
<path id="Vector" d="M12 2.24951C6.62386 2.24951 2.24995 6.62342 2.24995 11.9995C2.24995 17.3756 6.62386 21.7495 12 21.7495C17.376 21.7495 21.75 17.3756 21.75 11.9995C21.75 6.62342 17.376 2.24951 12 2.24951ZM17.0742 8.73186L10.7742 16.2319C10.7051 16.3142 10.6191 16.3807 10.522 16.4268C10.425 16.473 10.3191 16.4978 10.2117 16.4995H10.199C10.0939 16.4995 9.98995 16.4773 9.89394 16.4345C9.79792 16.3917 9.71197 16.3292 9.64167 16.2511L6.94167 13.2511C6.8731 13.1783 6.81976 13.0926 6.78479 12.999C6.74981 12.9054 6.7339 12.8057 6.738 12.7058C6.7421 12.6059 6.76613 12.5079 6.80866 12.4174C6.85119 12.327 6.91138 12.2459 6.98568 12.1791C7.05998 12.1122 7.14689 12.0609 7.24132 12.0281C7.33574 11.9953 7.43577 11.9817 7.53552 11.9881C7.63527 11.9945 7.73273 12.0208 7.82217 12.0654C7.91162 12.1101 7.99124 12.1721 8.05636 12.2479L10.1793 14.6067L15.9257 7.76717C16.0546 7.61814 16.237 7.52583 16.4334 7.51018C16.6298 7.49452 16.8245 7.5568 16.9754 7.68353C17.1263 7.81026 17.2212 7.99127 17.2397 8.18744C17.2582 8.38361 17.1987 8.57917 17.0742 8.73186Z" fill="#704CEB"/>
</g>
</svg>
