<svg width="67" height="81" viewBox="0 0 67 81" fill="none" xmlns="http://www.w3.org/2000/svg">
<g id="icono_perseus 1" clip-path="url(#clip0_2_141)">
<path id="Vector" d="M65.5784 66.515C62.5229 67.9703 60.9557 68.7577 57.9281 70.1453C52.6997 72.5413 47.4384 74.8649 42.2112 77.2633C39.9618 78.2959 37.7293 79.3767 35.5515 80.5494C34.2793 81.2342 33.3288 81.0904 32.0068 80.4359C27.3707 78.1413 22.5744 76.1692 17.9032 73.9398C12.9017 71.5522 8.07388 68.7746 2.97046 66.6394C0.399324 65.5646 -0.0146313 64.1468 -6.39208e-05 61.7085C0.0970516 46.179 0.0484938 30.647 0.0484938 15.1163C0.0484938 14.5379 0.0484938 13.9594 0.0484938 12.9848C6.53703 15.8699 12.7403 18.6283 19.3344 21.5593C19.7168 17.5317 20.081 13.7058 20.444 9.88107C20.5909 9.86657 20.7365 9.85208 20.8834 9.83638C24.0579 14.7722 27.2323 19.7067 30.6714 25.0543C34.6277 16.9085 36.2957 8.64441 37.1321 -0.00134277C37.4295 0.193093 37.7257 0.276423 37.7815 0.439459C39.2152 4.64096 40.6294 8.8485 42.0364 13.0585C42.9323 15.7407 43.8112 18.4278 44.6974 21.1124C45.1805 22.5749 46.0837 22.7972 47.5623 22.0943C53.6114 19.2176 59.6908 16.4049 65.7629 13.5778C66.0968 13.422 66.4694 13.3459 66.9999 13.1768V62.0853C66.9999 63.3352 66.9999 65.3134 65.5784 66.5138V66.515ZM52.815 29.8198C52.9752 29.8512 53.1367 29.8826 53.2969 29.9128C53.5324 32.3378 53.8639 34.7592 53.984 37.1902C54.3531 44.5981 53.7971 51.8997 51.0366 58.8885C49.0324 63.9632 45.5071 67.9111 41.5193 71.5208C41.1284 71.8747 41.0555 72.5751 40.8346 73.115C41.3542 73.0884 41.9441 73.2152 42.3812 73.0123C48.6888 70.0789 54.9528 67.0512 61.2835 64.1673C62.8822 63.4391 63.2258 62.3558 63.2209 60.8051C63.1857 48.1559 63.1906 35.5067 63.1821 22.8587C63.1797 19.534 63.1712 19.5147 60.2273 20.7827C56.2699 22.488 52.327 24.2258 48.3768 25.948C47.2612 26.4347 46.6712 27.0941 46.8181 28.4889C47.0427 30.6168 46.9759 32.7762 47.0209 34.9234C47.0391 35.7664 47.0233 36.6105 47.0233 37.4535C47.2151 37.4909 47.4069 37.5284 47.5987 37.5646C49.3371 34.9826 51.0754 32.4006 52.8138 29.8186L52.815 29.8198ZM26.8779 73.3686C27.0721 73.1633 27.2651 72.958 27.4594 72.7526C26.8293 71.8674 26.2005 70.981 25.568 70.097C22.8791 66.3411 20.0992 62.6468 17.5317 58.8112C15.8856 56.3524 14.3475 53.7789 13.1215 51.0942C10.3051 44.929 11.3661 38.9027 14.2249 33.0177C15.2459 30.9164 16.183 28.7727 17.1141 26.6303C17.5693 25.5821 17.1384 24.9541 16.0811 24.5181C13.7891 23.5749 11.5458 22.5146 9.26961 21.5327C7.65021 20.8347 6.00896 20.1874 4.27181 19.4736C4.20747 20.092 4.14556 20.4132 4.14556 20.7344C4.11764 34.2991 4.07757 47.8637 4.13099 61.4283C4.13342 62.0418 4.87271 62.8884 5.48939 63.218C7.02989 64.0393 8.73548 64.5465 10.3051 65.3218C13.9809 67.1357 17.5997 69.0656 21.2743 70.882C23.1049 71.7865 25.0084 72.5449 26.8791 73.3686H26.8779ZM30.652 68.2963C30.7491 68.2166 30.896 68.1562 30.9349 68.0548C31.0502 67.7553 31.1449 67.4437 31.2104 67.1285C32.3503 61.6312 34.34 56.4587 37.1236 51.5761C38.4091 49.3225 39.81 47.1028 40.8103 44.7237C44.542 35.8582 43.0573 27.1689 39.5806 18.6114C39.4179 18.2116 38.9336 17.9411 38.5985 17.6102C38.2792 17.9616 37.7924 18.2623 37.6662 18.6729C35.7615 24.8599 32.7789 30.5142 29.2135 35.8896C21.8206 47.0352 24.6831 57.7328 30.6508 68.2963H30.652ZM19.9912 54.4769C20.1623 54.3912 20.3323 54.3066 20.5035 54.2209C20.5035 53.6545 20.4525 53.0832 20.512 52.5241C20.8773 49.1136 20.7705 45.5534 21.7793 42.3398C22.9483 38.6117 25.114 35.1952 26.822 31.6313C27.2287 30.7811 28.0603 29.6543 27.7944 29.0469C26.6642 26.4637 25.1941 24.0278 23.8527 21.5484C21.8145 26.2644 20.0264 30.7823 17.9323 35.1553C14.9667 41.3495 14.9569 47.2888 18.8294 53.0844C19.1633 53.5844 19.6015 54.0144 19.99 54.4769H19.9912ZM49.5628 43.5317C44.6634 44.4351 34.5949 63.625 35.0198 71.2503C42.7575 68.2746 51.3 51.9951 49.5628 43.5317Z" fill="#704CEB"/>
</g>
<defs>
<clipPath id="clip0_2_141">
<rect width="67" height="81" fill="white"/>
</clipPath>
</defs>
</svg>
