<?xml version="1.0" encoding="UTF-8"?>
<svg id="Capa_1" data-name="Capa 1" xmlns="http://www.w3.org/2000/svg" viewBox="0 0 551.92 670.71">
  <defs>
    <style>
      .cls-1 {
        fill: #03C1EA;
        opacity:10%;
      }
    </style>
  </defs>
  <path class="cls-1" d="m540.21,550.77c-25.17,12.05-38.08,18.57-63.02,30.06-43.07,19.84-86.41,39.08-129.47,58.94-18.53,8.55-36.92,17.5-54.86,27.21-10.48,5.67-18.31,4.48-29.2-.94-38.19-19-77.7-35.33-116.18-53.79-41.2-19.77-80.97-42.77-123.01-60.45C3.29,542.9-.12,531.16,0,510.97.8,382.38.4,253.77.4,125.17c0-4.79,0-9.58,0-17.65,53.45,23.89,104.55,46.73,158.87,71,3.15-33.35,6.15-65.03,9.14-96.7,1.21-.12,2.41-.24,3.62-.37,26.15,40.87,52.3,81.73,80.63,126.01,32.59-67.45,46.33-135.88,53.22-207.47,2.45,1.61,4.89,2.3,5.35,3.65,11.81,34.79,23.46,69.63,35.05,104.49,7.38,22.21,14.62,44.46,21.92,66.69,3.98,12.11,11.42,13.95,23.6,8.13,49.83-23.82,99.91-47.11,149.93-70.52,2.75-1.29,5.82-1.92,10.19-3.32v404.98c0,10.35,0,26.73-11.71,36.67Zm-105.14-303.85c1.32.26,2.65.52,3.97.77,1.94,20.08,4.67,40.13,5.66,60.26,3.04,61.34-1.54,121.8-24.28,179.67-16.51,42.02-45.55,74.71-78.4,104.6-3.22,2.93-3.82,8.73-5.64,13.2,4.28-.22,9.14.83,12.74-.85,51.96-24.29,103.56-49.36,155.71-73.24,13.17-6.03,16-15,15.96-27.84-.29-104.74-.25-209.48-.32-314.21-.02-27.53-.09-27.69-24.34-17.19-32.6,14.12-65.08,28.51-97.62,42.77-9.19,4.03-14.05,9.49-12.84,21.04,1.85,17.62,1.3,35.5,1.67,53.28.15,6.98.02,13.97.02,20.95,1.58.31,3.16.62,4.74.92,14.32-21.38,28.64-42.76,42.96-64.14Zm-213.66,360.6c1.6-1.7,3.19-3.4,4.79-5.1-5.19-7.33-10.37-14.67-15.58-21.99-22.15-31.1-45.05-61.69-66.2-93.45-13.56-20.36-26.23-41.67-36.33-63.9-23.2-51.05-14.46-100.95,9.09-149.68,8.41-17.4,16.13-35.15,23.8-52.89,3.75-8.68.2-13.88-8.51-17.49-18.88-7.81-37.36-16.59-56.11-24.72-13.34-5.78-26.86-11.14-41.17-17.05-.53,5.12-1.04,7.78-1.04,10.44-.23,112.32-.56,224.64-.12,336.96.02,5.08,6.11,12.09,11.19,14.82,12.69,6.8,26.74,11,39.67,17.42,30.28,15.02,60.09,31,90.36,46.04,15.08,7.49,30.76,13.77,46.17,20.59Zm31.09-42c.8-.66,2.01-1.16,2.33-2,.95-2.48,1.73-5.06,2.27-7.67,9.39-45.52,25.78-88.35,48.71-128.78,10.59-18.66,22.13-37.04,30.37-56.74,30.74-73.41,18.51-145.36-10.13-216.22-1.34-3.31-5.33-5.55-8.09-8.29-2.63,2.91-6.64,5.4-7.68,8.8-15.69,51.23-40.26,98.05-69.63,142.56-60.9,92.29-37.32,180.87,11.84,268.34Zm-87.82-114.43c1.41-.71,2.81-1.41,4.22-2.12,0-4.69-.42-9.42.07-14.05,3.01-28.24,2.13-57.72,10.44-84.33,9.63-30.87,27.47-59.16,41.54-88.67,3.35-7.04,10.2-16.37,8.01-21.4-9.31-21.39-21.42-41.56-32.47-62.09-16.79,39.05-31.52,76.46-48.77,112.67-24.43,51.29-24.51,100.47,7.39,148.46,2.75,4.14,6.36,7.7,9.56,11.53Zm243.6-90.63c-40.36,7.48-123.3,166.38-119.8,229.52,63.74-24.64,134.11-159.44,119.8-229.52Z"/>
</svg>