<?xml version="1.0" encoding="UTF-8"?>
<svg id="Capa_1" data-name="Capa 1" xmlns="http://www.w3.org/2000/svg" viewBox="0 0 498.5 194.82">
  <defs>
    <style>
      .cls-1, .cls-2 {
        fill: #00c1eb;
      }

      .cls-3 {
        letter-spacing: -.05em;
      }

      .cls-3, .cls-4, .cls-5 {
        font-family: Volte-Bold, Volte;
        font-weight: 700;
      }

      .cls-4 {
        letter-spacing: -.02em;
      }

      .cls-5 {
        letter-spacing: -.04em;
      }

      .cls-6 {
        font-size: 96.44px;
      }

      .cls-2 {
        font-family: Volte-Regular, Volte;
        letter-spacing: -.06em;
      }
    </style>
  </defs>
  <path class="cls-1" d="m300.82,86.35c-3.95,1.89-5.97,2.91-9.88,4.71-6.75,3.11-13.55,6.13-20.3,9.24-2.91,1.34-5.79,2.74-8.6,4.27-1.64.89-2.87.7-4.58-.15-5.99-2.98-12.18-5.54-18.21-8.43-6.46-3.1-12.69-6.7-19.28-9.48-3.32-1.4-3.85-3.24-3.83-6.4.13-20.16.06-40.32.06-60.48,0-.75,0-1.5,0-2.77,8.38,3.74,16.39,7.33,24.91,11.13.49-5.23.96-10.19,1.43-15.16.19-.02.38-.04.57-.06,4.1,6.41,8.2,12.81,12.64,19.75,5.11-10.57,7.26-21.3,8.34-32.53.38.25.77.36.84.57,1.85,5.45,3.68,10.92,5.5,16.38,1.16,3.48,2.29,6.97,3.44,10.46.62,1.9,1.79,2.19,3.7,1.27,7.81-3.73,15.66-7.39,23.5-11.06.43-.2.91-.3,1.6-.52v63.49c0,1.62,0,4.19-1.84,5.75Zm-16.48-47.64l.62.12c.3,3.15.73,6.29.89,9.45.48,9.62-.24,19.1-3.81,28.17-2.59,6.59-7.14,11.71-12.29,16.4-.5.46-.6,1.37-.88,2.07.67-.03,1.43.13,2-.13,8.15-3.81,16.24-7.74,24.41-11.48,2.06-.95,2.51-2.35,2.5-4.36-.05-16.42-.04-32.84-.05-49.26,0-4.32-.01-4.34-3.82-2.69-5.11,2.21-10.2,4.47-15.3,6.71-1.44.63-2.2,1.49-2.01,3.3.29,2.76.2,5.57.26,8.35.02,1.09,0,2.19,0,3.28.25.05.49.1.74.14,2.24-3.35,4.49-6.7,6.73-10.06Zm-33.5,56.53c.25-.27.5-.53.75-.8-.81-1.15-1.63-2.3-2.44-3.45-3.47-4.87-7.06-9.67-10.38-14.65-2.13-3.19-4.11-6.53-5.7-10.02-3.64-8-2.27-15.83,1.42-23.47,1.32-2.73,2.53-5.51,3.73-8.29.59-1.36.03-2.18-1.33-2.74-2.96-1.22-5.86-2.6-8.8-3.88-2.09-.91-4.21-1.75-6.45-2.67-.08.8-.16,1.22-.16,1.64-.04,17.61-.09,35.22-.02,52.83,0,.8.96,1.9,1.75,2.32,1.99,1.07,4.19,1.73,6.22,2.73,4.75,2.36,9.42,4.86,14.17,7.22,2.36,1.17,4.82,2.16,7.24,3.23Zm4.87-6.58c.13-.1.32-.18.37-.31.15-.39.27-.79.36-1.2,1.47-7.14,4.04-13.85,7.64-20.19,1.66-2.93,3.47-5.81,4.76-8.89,4.82-11.51,2.9-22.79-1.59-33.9-.21-.52-.84-.87-1.27-1.3-.41.46-1.04.85-1.2,1.38-2.46,8.03-6.31,15.37-10.92,22.35-9.55,14.47-5.85,28.36,1.86,42.07Zm-13.77-17.94c.22-.11.44-.22.66-.33,0-.73-.07-1.48.01-2.2.47-4.43.33-9.05,1.64-13.22,1.51-4.84,4.31-9.27,6.51-13.9.53-1.1,1.6-2.57,1.26-3.36-1.46-3.35-3.36-6.51-5.09-9.73-2.63,6.12-4.94,11.99-7.65,17.66-3.83,8.04-3.84,15.75,1.16,23.28.43.65,1,1.21,1.5,1.81Zm38.19-14.21c-6.33,1.17-19.33,26.08-18.78,35.98,9.99-3.86,21.02-25,18.78-35.98Z"/>
  <text class="cls-6" transform="translate(0 174.47)"><tspan class="cls-5" x="0" y="0">P</tspan><tspan class="cls-4" x="52.46" y="0">e</tspan><tspan class="cls-3" x="103.19" y="0">r</tspan><tspan class="cls-4" x="139.36" y="0">seus</tspan><tspan class="cls-2" x="328.86" y="0">App</tspan></text>
</svg>