<svg width="240" height="41" viewBox="0 0 240 41" fill="none" xmlns="http://www.w3.org/2000/svg">
<g clip-path="url(#clip0_2_26)">
<path d="M72.6125 0.914917H74.3642V11.7255H80.8214V13.3772H72.6125V0.914917Z" fill="white"/>
<path d="M81.6971 8.71371C81.6971 6.0086 83.6615 3.83264 86.3087 3.83264C88.9559 3.83264 90.9005 5.91464 90.9005 8.54063C90.9005 8.77306 90.8807 9.02527 90.8411 9.16374H83.4487C83.6417 10.8353 84.8688 12.0815 86.6402 12.0815C87.6892 12.0815 88.6244 11.676 89.2479 11.0529L90.1632 12.2398C89.4062 13.0557 88.0801 13.6195 86.5858 13.6195C83.7456 13.6195 81.7021 11.4238 81.7021 8.71866L81.6971 8.71371ZM83.4883 8.01147H89.1341C88.8619 6.2806 87.7931 5.30636 86.3285 5.30636C84.8639 5.30636 83.7407 6.45368 83.4883 8.01147Z" fill="white"/>
<path d="M100.47 11.9233C99.7526 12.9519 98.6195 13.6146 97.1994 13.6146C94.6709 13.6146 92.6868 11.5326 92.6868 8.71371C92.6868 5.89486 94.5967 3.83264 97.1994 3.83264C98.6195 3.83264 99.7476 4.45576 100.47 5.46461V4.06507H102.202V13.3821H100.47V11.9233ZM100.47 8.71371C100.47 6.88393 99.2033 5.44483 97.4517 5.44483C95.7001 5.44483 94.4186 6.88393 94.4186 8.71371C94.4186 10.5435 95.7001 11.9974 97.4517 11.9974C99.2033 11.9974 100.47 10.5188 100.47 8.71371Z" fill="white"/>
<path d="M107.274 13.3772H105.542V4.06507H107.274V5.23218C107.778 4.37663 108.58 3.83264 109.609 3.83264C110.193 3.83264 110.698 3.96617 111.029 4.23816L110.312 5.85035C110 5.6377 109.555 5.47945 109.104 5.47945C107.976 5.47945 107.274 6.45368 107.274 8.00653V13.3722V13.3772Z" fill="white"/>
<path d="M114.844 13.3772H113.112V4.06507H114.844V5.2124C115.428 4.33707 116.423 3.83264 117.65 3.83264C119.847 3.83264 121.267 5.32614 121.267 7.68508V13.3821H119.535V7.95707C119.535 6.41907 118.639 5.44977 117.18 5.44977C115.72 5.44977 114.844 6.42401 114.844 7.95707V13.3821V13.3772Z" fill="white"/>
<path d="M124.221 1.37972C124.221 0.796169 124.711 0.311523 125.289 0.311523C125.868 0.311523 126.358 0.796169 126.358 1.37972C126.358 1.96327 125.873 2.44792 125.289 2.44792C124.706 2.44792 124.221 1.96327 124.221 1.37972ZM126.165 13.3772H124.433V4.06505H126.165V13.3821V13.3772Z" fill="white"/>
<path d="M131.222 13.3772H129.49V4.06507H131.222V5.2124C131.806 4.33707 132.801 3.83264 134.028 3.83264C136.225 3.83264 137.645 5.32614 137.645 7.68508V13.3821H135.913V7.95707C135.913 6.41907 135.017 5.44977 133.558 5.44977C132.098 5.44977 131.222 6.42401 131.222 7.95707V13.3821V13.3772Z" fill="white"/>
<path d="M144.745 15.8499C146.71 15.8499 147.838 14.8015 147.838 12.8184V11.7107C147.12 12.7245 145.987 13.3624 144.567 13.3624C142.078 13.3624 140.129 11.3397 140.129 8.59507C140.129 5.8504 142.073 3.86731 144.567 3.86731C145.987 3.86731 147.115 4.47064 147.838 5.44488V4.06512H149.55V12.7195C149.55 16.1615 147.373 17.4275 144.839 17.4275C143.127 17.4275 141.766 16.9972 140.871 16.2406L141.747 14.8806C142.37 15.3455 143.399 15.8549 144.745 15.8549V15.8499ZM147.838 8.57529C147.838 6.84442 146.591 5.44488 144.859 5.44488C143.127 5.44488 141.865 6.84442 141.865 8.57529C141.865 10.3062 143.132 11.7453 144.859 11.7453C146.586 11.7453 147.838 10.326 147.838 8.57529Z" fill="white"/>
<path d="M157.427 0.934692H162.37C164.552 0.934692 166.244 2.35401 166.244 4.2827C166.244 5.76136 165.176 6.61691 164.339 6.94825C165.586 7.31915 166.655 8.30822 166.655 9.94019C166.655 11.7898 165.136 13.3822 162.687 13.3822H157.432V0.934692H157.427ZM159.179 2.49248V6.28557H162.192C163.459 6.28557 164.409 5.46959 164.409 4.40139C164.409 3.33319 163.459 2.49743 162.192 2.49743H159.179V2.49248ZM159.179 7.76423V11.8095H162.469C163.81 11.8095 164.824 10.9342 164.824 9.78689C164.824 8.63956 163.815 7.76423 162.489 7.76423H159.184H159.179Z" fill="white"/>
<path d="M169 1.37972C169 0.796169 169.49 0.311523 170.069 0.311523C170.648 0.311523 171.138 0.796169 171.138 1.37972C171.138 1.96327 170.653 2.44792 170.069 2.44792C169.485 2.44792 169 1.96327 169 1.37972ZM170.945 13.3772H169.213V4.06505H170.945V13.3821V13.3772Z" fill="white"/>
<path d="M178.456 5.44489C176.606 5.44489 175.324 6.88399 175.324 8.71377C175.324 10.5436 176.606 11.9975 178.436 11.9975C179.446 11.9975 180.322 11.6662 180.945 11.048L181.841 12.314C181.103 13.1102 179.797 13.6196 178.377 13.6196C175.651 13.6196 173.592 11.4238 173.592 8.71872C173.592 6.0136 175.675 3.83765 178.397 3.83765C179.896 3.83765 181.123 4.34207 181.9 5.13828L180.905 6.36473C180.282 5.78117 179.466 5.44983 178.456 5.44983V5.44489Z" fill="white"/>
<path d="M185.571 9.21813C185.571 10.855 186.522 11.943 187.961 11.943C189.401 11.943 190.396 10.855 190.396 9.21813V4.06506H192.128V9.3566C192.128 11.8837 190.475 13.5552 187.961 13.5552C185.448 13.5552 183.835 11.8837 183.835 9.3566V4.06506H185.567V9.21813H185.571Z" fill="white"/>
<path d="M195.319 0H197.051V13.3772H195.319V0Z" fill="white"/>
<path d="M199.327 4.06504H200.881V1.75061H202.593V4.06504H205.24V5.60305H202.613V10.5237C202.613 11.5128 203.058 12.0023 203.894 12.0023C204.364 12.0023 204.829 11.8293 205.101 11.5177L205.898 12.8233C205.468 13.2486 204.691 13.6195 203.662 13.6195C201.91 13.6195 200.856 12.5859 200.856 10.583V5.60305H199.317V4.06504H199.327Z" fill="white"/>
<path d="M209.56 9.21813C209.56 10.855 210.51 11.943 211.95 11.943C213.389 11.943 214.384 10.855 214.384 9.21813V4.06506H216.116V9.3566C216.116 11.8837 214.463 13.5552 211.95 13.5552C209.436 13.5552 207.823 11.8837 207.823 9.3566V4.06506H209.555V9.21813H209.56Z" fill="white"/>
<path d="M221.034 13.3772H219.302V4.06507H221.034V5.23218C221.539 4.37663 222.34 3.83264 223.37 3.83264C223.953 3.83264 224.458 3.96617 224.79 4.23816L224.067 5.85035C223.756 5.6377 223.31 5.47945 222.86 5.47945C221.732 5.47945 221.029 6.45368 221.029 8.00653V13.3722L221.034 13.3772Z" fill="white"/>
<path d="M233.196 11.9233C232.479 12.9519 231.346 13.6146 229.926 13.6146C227.397 13.6146 225.413 11.5326 225.413 8.71371C225.413 5.89486 227.323 3.83264 229.926 3.83264C231.346 3.83264 232.474 4.45576 233.196 5.46461V4.06507H234.928V13.3821H233.196V11.9233ZM233.196 8.71371C233.196 6.88393 231.93 5.44483 230.178 5.44483C228.427 5.44483 227.145 6.88393 227.145 8.71371C227.145 10.5435 228.427 11.9974 230.178 11.9974C231.93 11.9974 233.196 10.5188 233.196 8.71371Z" fill="white"/>
<path d="M238.273 0H240.005V13.3772H238.273V0Z" fill="white"/>
<path d="M79.5002 27.1402C78.9362 26.344 77.7486 25.6615 76.4077 25.6615C74.9085 25.6615 73.9733 26.3242 73.9733 27.333C73.9733 30.0728 80.9401 28.8265 80.9401 33.2625C80.9401 35.4583 79.1489 36.9419 76.3681 36.9419C74.0326 36.9419 72.5136 36.027 71.6576 34.8203L72.9243 33.6334C73.7605 34.7264 74.9678 35.2852 76.3879 35.2852C78.0999 35.2852 79.0747 34.5483 79.0747 33.3812C79.0747 30.3448 72.1079 31.6899 72.1079 27.3924C72.1079 25.3895 73.8793 24.0098 76.4671 24.0098C78.4117 24.0098 79.9901 24.8653 80.7471 25.9335L79.5002 27.1402Z" fill="white"/>
<path d="M87.0856 34.667L89.7328 27.3923H91.4844L87.4567 38.2227C86.853 39.914 85.8783 40.7498 84.4384 40.7498C83.622 40.7498 82.7858 40.4184 82.2019 39.8942L83.0183 38.554C83.4241 38.9398 83.9535 39.1376 84.478 39.1376C85.1608 39.1376 85.6061 38.7518 86.0168 37.6193L86.3088 36.8231L82.0831 27.3923H83.9683L87.0856 34.667Z" fill="white"/>
<path d="M99.7674 34.1626C99.7674 35.7402 98.4611 36.9468 96.1306 36.9468C94.4186 36.9468 93.1321 36.3435 92.3948 35.4286L93.4042 34.3011C94.0475 35.0775 95.0173 35.5473 96.2444 35.5473C97.4715 35.5473 98.0554 35.0033 98.0554 34.2071C98.0554 32.0856 92.7808 33.0598 92.7808 29.7513C92.7808 28.3864 93.9683 27.1649 96.1455 27.1649C97.7387 27.1649 98.9658 27.6891 99.6091 28.604L98.5749 29.6327C97.9515 28.8562 97.1944 28.5645 96.1801 28.5645C95.1657 28.5645 94.4681 29.0689 94.4681 29.7513C94.4681 31.7542 99.7625 30.7256 99.7625 34.1626H99.7674Z" fill="white"/>
<path d="M101.227 27.3923H102.781V25.0779H104.493V27.3923H107.14V28.9303H104.513V33.8509C104.513 34.84 104.958 35.3296 105.794 35.3296C106.264 35.3296 106.729 35.1565 107.001 34.845L107.798 36.1505C107.368 36.5758 106.591 36.9467 105.562 36.9467C103.81 36.9467 102.756 35.9132 102.756 33.9152V28.9353H101.217V27.3973L101.227 27.3923Z" fill="white"/>
<path d="M108.694 32.041C108.694 29.3408 110.658 27.1599 113.305 27.1599C115.953 27.1599 117.897 29.2419 117.897 31.8679C117.897 32.1003 117.877 32.3525 117.838 32.491H110.445C110.638 34.1625 111.865 35.4088 113.637 35.4088C114.686 35.4088 115.621 35.0033 116.244 34.3801L117.16 35.567C116.403 36.383 115.077 36.9468 113.582 36.9468C110.742 36.9468 108.699 34.751 108.699 32.0459L108.694 32.041ZM110.485 31.3437H116.131C115.858 29.6128 114.79 28.6386 113.325 28.6386C111.86 28.6386 110.737 29.7859 110.485 31.3437Z" fill="white"/>
<path d="M122.098 36.7094H120.366V27.3923H122.098V28.5594C122.662 27.7039 123.597 27.1599 124.785 27.1599C126.244 27.1599 127.333 27.8572 127.897 29.0441C128.402 27.9561 129.436 27.1599 130.935 27.1599C133.093 27.1599 134.498 28.6188 134.498 31.0123V36.7094H132.766V31.2843C132.766 29.7463 131.93 28.777 130.549 28.777C129.169 28.777 128.293 29.7513 128.293 31.2843V36.7094H126.581V31.2843C126.581 29.7463 125.725 28.777 124.339 28.777C122.954 28.777 122.103 29.7513 122.103 31.2843V36.7094H122.098Z" fill="white"/>
<path d="M33.2756 13.3327C33.2756 11.5474 32.2019 10.3902 30.7471 9.95504C30.7372 9.95504 30.7372 9.94021 30.7471 9.93526C31.7615 9.48029 32.949 8.58023 32.949 6.84441C32.949 4.23821 30.6729 2.48755 27.5952 2.48755H18.2335V17.6599H27.902C31.5735 17.6599 33.2805 15.6224 33.2805 13.3278L33.2756 13.3327Z" fill="white"/>
<path d="M6.41761 22.6102C3.05294 22.6102 0.613558 24.5735 0.613558 27.2984C0.613558 29.8255 2.27115 30.9431 4.01781 31.6355L0 35.656C0.950025 37.1495 2.72637 38.4947 6.16032 38.4947C9.59426 38.4947 12.2217 36.3879 12.2217 33.5691C12.2217 30.8986 10.3414 29.8007 8.476 29.1183L12.2217 25.3746C11.0836 23.7427 9.04503 22.6052 6.41761 22.6052V22.6102Z" fill="white"/>
<path d="M9.94558 2.48755H4.62148H3.18655H0.712524V17.6649H3.77536H11.5092H12.3058V9.95999H9.94558V2.48755Z" fill="white"/>
<path d="M28.3968 23.6141H21.0836V27.1847H17.5111V34.4939H21.0836V38.0645H28.3968V34.4939H31.9693V27.1847H28.3968V23.6141Z" fill="white"/>
</g>
<defs>
<clipPath id="clip0_2_26">
<rect width="240" height="40.7547" fill="white"/>
</clipPath>
</defs>
</svg>
