<?xml version="1.0" encoding="UTF-8"?>
<svg id="Capa_1" data-name="Capa 1" xmlns="http://www.w3.org/2000/svg" viewBox="0 0 485.04 82.41">
  <defs>
    <style>
      .cls-1 {
        fill: #fff;
      }
    </style>
  </defs>
  <g>
    <path class="cls-1" d="m146.75,1.85h3.54v21.86h13.05v3.34h-16.59V1.85Z"/>
    <path class="cls-1" d="m165.11,17.62c0-5.47,3.97-9.87,9.32-9.87s9.28,4.21,9.28,9.52c0,.47-.04.98-.12,1.26h-14.94c.39,3.38,2.87,5.9,6.45,5.9,2.12,0,4.01-.82,5.27-2.08l1.85,2.4c-1.53,1.65-4.21,2.79-7.23,2.79-5.74,0-9.87-4.44-9.87-9.91Zm3.62-1.42h11.41c-.55-3.5-2.71-5.47-5.67-5.47s-5.23,2.32-5.74,5.47Z"/>
    <path class="cls-1" d="m203.05,24.11c-1.45,2.08-3.74,3.42-6.61,3.42-5.11,0-9.12-4.21-9.12-9.91s3.86-9.87,9.12-9.87c2.87,0,5.15,1.26,6.61,3.3v-2.83h3.5v18.84h-3.5v-2.95Zm0-6.49c0-3.7-2.56-6.61-6.1-6.61s-6.13,2.91-6.13,6.61,2.59,6.64,6.13,6.64,6.1-2.99,6.1-6.64Z"/>
    <path class="cls-1" d="m216.8,27.05h-3.5V8.22h3.5v2.36c1.02-1.73,2.64-2.83,4.72-2.83,1.18,0,2.2.27,2.87.82l-1.45,3.26c-.63-.43-1.53-.75-2.44-.75-2.28,0-3.7,1.97-3.7,5.11v10.85Z"/>
    <path class="cls-1" d="m232.1,27.05h-3.5V8.22h3.5v2.32c1.18-1.77,3.19-2.79,5.67-2.79,4.44,0,7.31,3.02,7.31,7.79v11.52h-3.5v-10.97c0-3.11-1.81-5.07-4.76-5.07s-4.72,1.97-4.72,5.07v10.97Z"/>
    <path class="cls-1" d="m251.05,2.79c0-1.18.99-2.16,2.16-2.16s2.16.98,2.16,2.16-.98,2.16-2.16,2.16-2.16-.98-2.16-2.16Zm3.93,24.26h-3.5V8.22h3.5v18.84Z"/>
    <path class="cls-1" d="m265.2,27.05h-3.5V8.22h3.5v2.32c1.18-1.77,3.19-2.79,5.67-2.79,4.44,0,7.31,3.02,7.31,7.79v11.52h-3.5v-10.97c0-3.11-1.81-5.07-4.76-5.07s-4.72,1.97-4.72,5.07v10.97Z"/>
    <path class="cls-1" d="m292.53,32.05c3.97,0,6.25-2.12,6.25-6.13v-2.24c-1.45,2.05-3.74,3.34-6.61,3.34-5.03,0-8.97-4.09-8.97-9.64s3.93-9.56,8.97-9.56c2.87,0,5.15,1.22,6.61,3.19v-2.79h3.46v17.5c0,6.96-4.4,9.52-9.52,9.52-3.46,0-6.21-.87-8.02-2.4l1.77-2.75c1.26.94,3.34,1.97,6.06,1.97Zm6.25-14.71c0-3.5-2.52-6.33-6.02-6.33s-6.05,2.83-6.05,6.33,2.56,6.41,6.05,6.41,6.02-2.87,6.02-6.41Z"/>
    <path class="cls-1" d="m318.16,1.89h9.99c4.41,0,7.83,2.87,7.83,6.77,0,2.99-2.16,4.72-3.85,5.39,2.52.75,4.68,2.75,4.68,6.05,0,3.74-3.07,6.96-8.02,6.96h-10.62V1.89Zm3.54,3.15v7.67h6.09c2.56,0,4.48-1.65,4.48-3.81s-1.92-3.85-4.48-3.85h-6.09Zm0,10.66v8.18h6.65c2.71,0,4.76-1.77,4.76-4.09s-2.04-4.09-4.72-4.09h-6.68Z"/>
    <path class="cls-1" d="m341.55,2.79c0-1.18.99-2.16,2.16-2.16s2.16.98,2.16,2.16-.98,2.16-2.16,2.16-2.16-.98-2.16-2.16Zm3.93,24.26h-3.5V8.22h3.5v18.84Z"/>
    <path class="cls-1" d="m360.66,11.01c-3.74,0-6.33,2.91-6.33,6.61s2.59,6.64,6.29,6.64c2.04,0,3.81-.67,5.07-1.92l1.81,2.56c-1.49,1.61-4.13,2.64-7,2.64-5.51,0-9.67-4.44-9.67-9.91s4.21-9.87,9.71-9.87c3.03,0,5.51,1.02,7.08,2.63l-2.01,2.48c-1.26-1.18-2.91-1.85-4.95-1.85Z"/>
    <path class="cls-1" d="m375.04,18.64c0,3.31,1.92,5.51,4.83,5.51s4.92-2.2,4.92-5.51v-10.42h3.5v10.7c0,5.11-3.34,8.49-8.42,8.49s-8.34-3.38-8.34-8.49v-10.7h3.5v10.42Z"/>
    <path class="cls-1" d="m394.74,0h3.5v27.05h-3.5V0Z"/>
    <path class="cls-1" d="m402.84,8.22h3.14V3.54h3.46v4.68h5.35v3.11h-5.31v9.95c0,2,.9,2.99,2.59,2.99.95,0,1.89-.35,2.44-.98l1.61,2.64c-.87.86-2.44,1.61-4.52,1.61-3.54,0-5.67-2.09-5.67-6.14v-10.07h-3.11v-3.11Z"/>
    <path class="cls-1" d="m423.52,18.64c0,3.31,1.92,5.51,4.83,5.51s4.92-2.2,4.92-5.51v-10.42h3.5v10.7c0,5.11-3.34,8.49-8.42,8.49s-8.34-3.38-8.34-8.49v-10.7h3.5v10.42Z"/>
    <path class="cls-1" d="m446.71,27.05h-3.5V8.22h3.5v2.36c1.02-1.73,2.64-2.83,4.72-2.83,1.18,0,2.2.27,2.87.82l-1.46,3.26c-.63-.43-1.53-.75-2.44-.75-2.28,0-3.7,1.97-3.7,5.11v10.85Z"/>
    <path class="cls-1" d="m471.29,24.11c-1.45,2.08-3.74,3.42-6.61,3.42-5.11,0-9.12-4.21-9.12-9.91s3.86-9.87,9.12-9.87c2.87,0,5.15,1.26,6.61,3.3v-2.83h3.5v18.84h-3.5v-2.95Zm0-6.49c0-3.7-2.56-6.61-6.1-6.61s-6.13,2.91-6.13,6.61,2.59,6.64,6.13,6.64,6.1-2.99,6.1-6.64Z"/>
    <path class="cls-1" d="m481.55,0h3.5v27.05h-3.5V0Z"/>
    <path class="cls-1" d="m160.67,54.88c-1.14-1.61-3.54-2.99-6.25-2.99-3.03,0-4.92,1.34-4.92,3.38,0,5.54,14.08,3.02,14.08,11.99,0,4.44-3.62,7.44-9.24,7.44-4.72,0-7.79-1.85-9.52-4.29l2.56-2.4c1.69,2.21,4.13,3.34,7,3.34,3.46,0,5.43-1.49,5.43-3.85,0-6.14-14.08-3.42-14.08-12.11,0-4.05,3.58-6.84,8.81-6.84,3.93,0,7.12,1.73,8.65,3.89l-2.52,2.44Z"/>
    <path class="cls-1" d="m176,70.1l5.35-14.71h3.54l-8.14,21.9c-1.22,3.42-3.19,5.11-6.1,5.11-1.65,0-3.34-.67-4.52-1.73l1.65-2.71c.82.78,1.89,1.18,2.95,1.18,1.38,0,2.28-.78,3.11-3.07l.59-1.61-8.54-19.07h3.81l6.3,14.71Z"/>
    <path class="cls-1" d="m201.63,69.08c0,3.19-2.64,5.63-7.35,5.63-3.46,0-6.06-1.22-7.55-3.07l2.04-2.28c1.3,1.57,3.26,2.52,5.74,2.52s3.66-1.1,3.66-2.71c0-4.29-10.66-2.32-10.66-9.01,0-2.76,2.4-5.23,6.8-5.23,3.22,0,5.7,1.06,7,2.91l-2.09,2.08c-1.26-1.57-2.79-2.16-4.84-2.16s-3.46,1.02-3.46,2.4c0,4.05,10.7,1.97,10.7,8.92Z"/>
    <path class="cls-1" d="m204.58,55.39h3.14v-4.68h3.46v4.68h5.35v3.11h-5.31v9.95c0,2,.9,2.99,2.59,2.99.95,0,1.89-.35,2.44-.98l1.61,2.64c-.87.86-2.44,1.61-4.52,1.61-3.54,0-5.67-2.09-5.67-6.13v-10.07h-3.11v-3.11Z"/>
    <path class="cls-1" d="m219.67,64.79c0-5.46,3.97-9.87,9.32-9.87s9.28,4.21,9.28,9.52c0,.47-.04.98-.12,1.26h-14.94c.39,3.38,2.87,5.9,6.45,5.9,2.12,0,4.01-.82,5.27-2.08l1.85,2.4c-1.53,1.65-4.21,2.79-7.23,2.79-5.74,0-9.87-4.44-9.87-9.91Zm3.62-1.41h11.41c-.55-3.5-2.71-5.47-5.67-5.47s-5.23,2.32-5.74,5.47Z"/>
    <path class="cls-1" d="m246.76,74.23h-3.5v-18.84h3.5v2.36c1.14-1.73,3.03-2.83,5.43-2.83,2.95,0,5.15,1.41,6.29,3.81,1.02-2.2,3.11-3.81,6.14-3.81,4.36,0,7.2,2.95,7.2,7.79v11.52h-3.5v-10.97c0-3.11-1.69-5.07-4.48-5.07s-4.56,1.97-4.56,5.07v10.97h-3.46v-10.97c0-3.11-1.73-5.07-4.53-5.07s-4.52,1.97-4.52,5.07v10.97Z"/>
  </g>
  <g>
    <path class="cls-1" d="m67.25,26.96c0-3.61-2.17-5.95-5.11-6.83-.02,0-.02-.03,0-.04,2.05-.92,4.45-2.74,4.45-6.25,0-5.27-4.6-8.81-10.82-8.81h-18.92v30.68h19.54c7.42,0,10.87-4.12,10.87-8.76Z"/>
    <path class="cls-1" d="m12.97,45.72c-6.8,0-11.73,3.97-11.73,9.48,0,5.11,3.35,7.37,6.88,8.77,0,0,0,0,0,0L0,72.1c1.92,3.02,5.51,5.74,12.45,5.74s12.25-4.26,12.25-9.96c0-5.4-3.8-7.62-7.57-9h0l7.57-7.57c-2.3-3.3-6.42-5.6-11.73-5.6Z"/>
    <polygon class="cls-1" points="20.1 5.03 9.34 5.03 6.44 5.03 1.44 5.03 1.44 35.72 7.63 35.72 23.26 35.72 23.26 35.72 24.87 35.72 24.87 20.14 20.1 20.14 20.1 5.03"/>
    <polygon class="cls-1" points="57.39 47.75 42.61 47.75 42.61 54.97 35.39 54.97 35.39 69.75 42.61 69.75 42.61 76.97 57.39 76.97 57.39 69.75 64.61 69.75 64.61 54.97 57.39 54.97 57.39 47.75"/>
  </g>
</svg>