<svg width="27" height="33" viewBox="0 0 27 33" fill="none" xmlns="http://www.w3.org/2000/svg">
<g id="PDF_file_icon 1" clip-path="url(#clip0_13_1261)">
<path id="Vector" d="M3.42869 -5.3665e-05C1.53917 -5.3665e-05 0 1.53064 0 3.40849V29.5899C0 31.4693 1.53917 32.9985 3.42869 32.9985H23.5684C25.4579 32.9985 26.9971 31.4678 26.9971 29.5899V8.06209C26.9971 8.06209 27.0513 7.43223 26.7757 6.81849C26.5177 6.24283 26.097 5.84295 26.097 5.84295C26.097 5.84295 26.0956 5.84002 26.0941 5.83855L21.0969 0.9667C21.0969 0.9667 21.091 0.960841 21.0881 0.957912C21.0881 0.957912 20.6615 0.553633 20.0298 0.284113C19.2851 -0.0322788 18.517 -5.3665e-05 18.517 -5.3665e-05H18.5287H3.42869Z" fill="#764AF4"/>
<path id="Vector_2" d="M3.42869 1.12012H18.5287C18.5287 1.12012 18.536 1.12012 18.5404 1.12012C18.5404 1.12012 19.1444 1.12598 19.5856 1.31493C20.0107 1.49657 20.3127 1.77048 20.3141 1.77194L20.3156 1.77341L25.2996 6.63354C25.2996 6.63354 25.6001 6.94847 25.7452 7.27365C25.8625 7.53585 25.8698 8.01483 25.8698 8.01483C25.8698 8.02215 25.8698 8.03094 25.8698 8.03827V29.591C25.8698 30.8683 24.854 31.8805 23.5684 31.8805H3.42869C2.14311 31.8805 1.12726 30.8698 1.12726 29.591V3.40957C1.12726 2.13228 2.14311 1.12012 3.42869 1.12012Z" fill="#704CEB"/>
<path id="Vector_3" d="M6.7401 19.6483C5.96465 18.8778 6.80314 17.8188 9.07964 16.6953L10.5118 15.9878L11.0703 14.775C11.3767 14.107 11.8355 13.0187 12.0876 12.3552L12.5479 11.1482L12.2313 10.2547C11.8414 9.15755 11.7021 7.50674 11.9498 6.9135C12.2841 6.10934 13.382 6.19283 13.8159 7.05412C14.1545 7.72646 14.1208 8.94515 13.7177 10.4817L13.3879 11.7414L13.6781 12.2307C13.8379 12.5002 14.304 13.1403 14.7145 13.6515L15.4855 14.6051L16.4457 14.4806C19.4947 14.0851 20.5384 14.7574 20.5384 15.7212C20.5384 16.937 18.1446 17.0381 16.1349 15.6348C15.682 15.3184 15.3727 15.0049 15.3727 15.0049C15.3727 15.0049 14.1135 15.2598 13.4934 15.4253C12.8528 15.5967 12.5347 15.7036 11.5966 16.0186C11.5966 16.0186 11.2682 16.4932 11.0527 16.8388C10.2553 18.1235 9.32445 19.1869 8.65894 19.5751C7.91427 20.0086 7.13443 20.0379 6.74157 19.6483H6.7401ZM7.95678 19.2162C8.39215 18.9481 9.27461 17.9111 9.88441 16.9487L10.1321 16.5591L9.00635 17.1215C7.26782 17.9902 6.47331 18.809 6.88669 19.3041C7.1183 19.5824 7.39682 19.5589 7.95678 19.2147V19.2162ZM19.247 16.0654C19.6735 15.7681 19.612 15.1705 19.1297 14.9302C18.7544 14.7427 18.4525 14.7047 17.4791 14.7178C16.881 14.7589 15.918 14.879 15.7553 14.9141C15.7553 14.9141 16.2844 15.2774 16.519 15.4107C16.8312 15.5879 17.5905 15.9175 18.1446 16.0859C18.6914 16.2529 19.008 16.2354 19.247 16.064V16.0654ZM14.7071 14.1905C14.4492 13.921 14.0109 13.3585 13.7323 12.9411C13.3688 12.4665 13.1856 12.1325 13.1856 12.1325C13.1856 12.1325 12.9202 12.9821 12.7018 13.4933L12.0217 15.1646L11.8238 15.544C11.8238 15.544 12.8719 15.2027 13.4054 15.0635C13.9713 14.9171 15.1176 14.6929 15.1176 14.6929L14.7057 14.1905H14.7071ZM13.2442 8.35924C13.3102 7.80995 13.338 7.26212 13.1606 6.98674C12.6681 6.4521 12.0744 6.89739 12.1756 8.16882C12.2093 8.59653 12.3163 9.32746 12.4585 9.77861L12.718 10.5974L12.9012 9.98075C13.0023 9.64092 13.1562 8.91293 13.2442 8.36071V8.35924Z" fill="white"/>
<path id="Vector_4" d="M8.0594 23.2153H9.31712C9.71877 23.2153 10.0457 23.2534 10.2963 23.3296C10.547 23.4043 10.7581 23.5698 10.9296 23.8291C11.1011 24.0854 11.1861 24.3959 11.1861 24.7577C11.1861 25.0903 11.1172 25.3773 10.978 25.6161C10.8387 25.8549 10.6511 26.0277 10.4151 26.1346C10.182 26.2401 9.82138 26.2943 9.33471 26.2943H8.89934V28.2674H8.05793V23.2153H8.0594ZM8.90081 23.8628V25.6249H9.31712C9.68945 25.6249 9.94598 25.556 10.0882 25.4184C10.2318 25.2807 10.3037 25.0551 10.3037 24.7446C10.3037 24.5131 10.2567 24.3256 10.1615 24.1821C10.0676 24.0371 9.96357 23.9477 9.84923 23.9155C9.73783 23.8803 9.56045 23.8642 9.31712 23.8642H8.90081V23.8628ZM11.8311 23.2153H12.9745C13.5286 23.2153 13.9698 23.3135 14.2996 23.5083C14.6324 23.7031 14.8831 23.9931 15.0516 24.3784C15.2231 24.7636 15.3082 25.1899 15.3082 25.6586C15.3082 26.1522 15.2319 26.5931 15.078 26.9798C14.927 27.3651 14.694 27.6756 14.3788 27.9129C14.0666 28.1502 13.6195 28.2688 13.039 28.2688H11.8326V23.2168L11.8311 23.2153ZM12.6725 23.8847V27.5965H13.0229C13.5125 27.5965 13.8672 27.428 14.0871 27.0926C14.3084 26.7542 14.4184 26.3046 14.4184 25.7421C14.4184 24.5029 13.9537 23.8847 13.0229 23.8847H12.6725ZM16.1159 23.2153H18.9377V23.8847H16.9573V25.3949H18.5434V26.0643H16.9573V28.2659H16.1159V23.2139V23.2153Z" fill="white"/>
</g>
<defs>
<clipPath id="clip0_13_1261">
<rect width="27" height="33" fill="white"/>
</clipPath>
</defs>
</svg>
