<svg width="99" height="99" viewBox="0 0 99 99" fill="none" xmlns="http://www.w3.org/2000/svg">
<g id="search">
<path id="Vector" d="M88.3049 81.4748L70.1117 63.2816C74.4918 57.4506 76.8563 50.353 76.8483 43.0601C76.8483 24.4318 61.6928 9.27634 43.0646 9.27634C24.4363 9.27634 9.28082 24.4318 9.28082 43.0601C9.28082 61.6883 24.4363 76.8438 43.0646 76.8438C50.3575 76.8518 57.4551 74.4873 63.2861 70.1072L81.4793 88.3004C82.4002 89.1236 83.6014 89.5631 84.8361 89.5285C86.0709 89.494 87.2456 88.988 88.119 88.1146C88.9925 87.2411 89.4984 86.0664 89.533 84.8317C89.5676 83.5969 89.1281 82.3957 88.3049 81.4748ZM18.9333 43.0601C18.9333 38.2874 20.3486 33.6219 23.0002 29.6535C25.6517 25.6851 29.4205 22.5922 33.8299 20.7657C38.2394 18.9393 43.0913 18.4614 47.7723 19.3925C52.4534 20.3236 56.7531 22.6219 60.1279 25.9967C63.5028 29.3715 65.801 33.6713 66.7321 38.3523C67.6633 43.0333 67.1854 47.8853 65.3589 52.2947C63.5325 56.7041 60.4395 60.4729 56.4712 63.1245C52.5028 65.7761 47.8373 67.1913 43.0646 67.1913C36.6669 67.1837 30.5335 64.6388 26.0097 60.115C21.4859 55.5912 18.941 49.4577 18.9333 43.0601Z" fill="white"/>
</g>
</svg>
