<svg width="30" height="30" viewBox="0 0 30 30" fill="none" xmlns="http://www.w3.org/2000/svg">
<g id="summer">
<path id="Vector" d="M16.2828 1.83865L17.8291 3.67945C18.0689 3.96429 18.3734 4.18758 18.7171 4.33062C19.0608 4.47367 19.4338 4.53233 19.8049 4.50168L22.2593 4.29305C22.5877 4.2693 22.9174 4.31651 23.2259 4.43145C23.5345 4.5464 23.8147 4.7264 24.0475 4.95923C24.2804 5.19206 24.4604 5.47226 24.5753 5.78081C24.6903 6.08937 24.7375 6.41905 24.7137 6.74746L24.5051 9.20186C24.4744 9.57292 24.5331 9.94592 24.6761 10.2897C24.8192 10.6334 25.0425 10.9379 25.3273 11.1777L27.1681 12.7239C27.4304 12.9404 27.6416 13.2122 27.7866 13.5198C27.9316 13.8274 28.0068 14.1633 28.0068 14.5034C28.0068 14.8435 27.9316 15.1793 27.7866 15.487C27.6416 15.7946 27.4304 16.0664 27.1681 16.2828L25.3273 17.8291C25.0425 18.0689 24.8192 18.3734 24.6761 18.7171C24.5331 19.0608 24.4744 19.4338 24.5051 19.8049L24.7137 22.2593C24.7375 22.5877 24.6903 22.9174 24.5753 23.2259C24.4604 23.5345 24.2804 23.8147 24.0475 24.0475C23.8147 24.2804 23.5345 24.4604 23.2259 24.5753C22.9174 24.6903 22.5877 24.7375 22.2593 24.7137L19.8049 24.5051C19.4338 24.4744 19.0608 24.5331 18.7171 24.6761C18.3734 24.8192 18.0689 25.0425 17.8291 25.3273L16.2828 27.1681C16.0664 27.4304 15.7946 27.6416 15.487 27.7866C15.1793 27.9316 14.8435 28.0068 14.5034 28.0068C14.1633 28.0068 13.8274 27.9316 13.5198 27.7866C13.2122 27.6416 12.9404 27.4304 12.7239 27.1681L11.1777 25.3273C10.9379 25.0425 10.6334 24.8192 10.2897 24.6761C9.94592 24.5331 9.57292 24.4744 9.20186 24.5051L6.74746 24.7137C6.41905 24.7375 6.08937 24.6903 5.78081 24.5753C5.47226 24.4604 5.19206 24.2804 4.95923 24.0475C4.7264 23.8147 4.5464 23.5345 4.43145 23.2259C4.31651 22.9174 4.2693 22.5877 4.29305 22.2593L4.50168 19.8049C4.53233 19.4338 4.47367 19.0608 4.33062 18.7171C4.18758 18.3734 3.96429 18.0689 3.67945 17.8291L1.83865 16.2828C1.57635 16.0664 1.36515 15.7946 1.22017 15.487C1.07518 15.1793 1 14.8435 1 14.5034C1 14.1633 1.07518 13.8274 1.22017 13.5198C1.36515 13.2122 1.57635 12.9404 1.83865 12.7239L3.67945 11.1777C3.96429 10.9379 4.18758 10.6334 4.33062 10.2897C4.47367 9.94592 4.53233 9.57292 4.50168 9.20186L4.29305 6.74746C4.2693 6.41905 4.31651 6.08937 4.43145 5.78081C4.5464 5.47226 4.7264 5.19206 4.95923 4.95923C5.19206 4.7264 5.47226 4.5464 5.78081 4.43145C6.08937 4.31651 6.41905 4.2693 6.74746 4.29305L9.20186 4.50168C9.57292 4.53233 9.94592 4.47367 10.2897 4.33062C10.6334 4.18758 10.9379 3.96429 11.1777 3.67945L12.7239 1.83865C12.9404 1.57635 13.2122 1.36515 13.5198 1.22017C13.8274 1.07518 14.1633 1 14.5034 1C14.8435 1 15.1793 1.07518 15.487 1.22017C15.7946 1.36515 16.0664 1.57635 16.2828 1.83865V1.83865Z" stroke="white" stroke-width="2" stroke-linecap="round" stroke-linejoin="round"/>
<path id="Vector_2" d="M14.5034 20.6395C17.8922 20.6395 20.6394 17.8923 20.6394 14.5034C20.6394 11.1146 17.8922 8.36743 14.5034 8.36743C11.1146 8.36743 8.3674 11.1146 8.3674 14.5034C8.3674 17.8923 11.1146 20.6395 14.5034 20.6395Z" stroke="white" stroke-width="2" stroke-linecap="round" stroke-linejoin="round"/>
</g>
</svg>
